<?xml version="1.0" standalone="no"?>
<!DOCTYPE svg PUBLIC "-//W3C//DTD SVG 20010904//EN"
 "http://www.w3.org/TR/2001/REC-SVG-20010904/DTD/svg10.dtd">
<svg version="1.0" xmlns="http://www.w3.org/2000/svg"
 width="350.000000pt" height="350.000000pt" viewBox="0 0 350.000000 350.000000"
 preserveAspectRatio="xMidYMid meet">
<metadata>
Created by potrace 1.14, written by Peter Selinger 2001-2017
</metadata>
<g transform="translate(0.000000,350.000000) scale(0.100000,-0.100000)"
fill="#000000" stroke="none">
<path d="M1105 3003 c-115 -26 -191 -86 -264 -207 -45 -75 -252 -435 -309
-536 -14 -25 -33 -57 -43 -72 -11 -14 -19 -29 -19 -32 0 -4 -11 -23 -23 -44
-67 -106 -132 -233 -141 -277 -10 -51 -9 -117 3 -176 12 -56 57 -138 453 -822
134 -231 184 -288 288 -329 54 -21 65 -21 650 -22 l595 -1 65 31 c80 38 131
81 174 148 30 47 277 474 334 576 14 25 33 56 42 70 10 14 29 48 44 75 15 28
35 64 45 80 75 124 101 198 101 279 -1 109 -13 138 -180 426 -63 107 -123 212
-134 232 -12 20 -43 74 -70 120 -27 46 -60 103 -74 128 -103 188 -155 257
-232 305 -94 59 -76 58 -688 59 -416 1 -577 -2 -617 -11z"/>
</g>
</svg>
